<svg xmlns="http://www.w3.org/2000/svg" version="1.1" xmlns:xlink="http://www.w3.org/1999/xlink" xmlns:svgjs="http://svgjs.dev/svgjs" width="1000" height="1000" viewBox="0 0 1000 1000"><g transform="matrix(1,0,0,1,-0.14221556886212738,-0.14221556886229791)"><svg viewBox="0 0 334 334" data-background-color="#54b175" preserveAspectRatio="xMidYMid meet" height="1000" width="1000" xmlns="http://www.w3.org/2000/svg" xmlns:xlink="http://www.w3.org/1999/xlink"><g id="tight-bounds" transform="matrix(1,0,0,1,0.04749999999998522,0.04750000000001364)"><svg viewBox="0 0 333.90454557049503 333.90454557049503" height="333.90454557049503" width="333.90454557049503"><g><svg></svg></g><g><svg viewBox="0 0 333.90454557049503 333.90454557049503" height="333.90454557049503" width="333.90454557049503"><g><path d="M0 166.952c0-92.205 74.747-166.952 166.952-166.952 92.205 0 166.952 74.747 166.953 166.952 0 92.205-74.747 166.952-166.953 166.953-92.205 0-166.952-74.747-166.952-166.953zM166.952 330.137c90.125 0 163.185-73.06 163.185-163.185 0-90.125-73.06-163.185-163.185-163.185-90.125 0-163.185 73.06-163.185 163.185 0 90.125 73.06 163.185 163.185 163.185z" data-fill-palette-color="tertiary" fill="#ffffff" stroke="transparent"></path><ellipse rx="160.27418187383762" ry="160.27418187383762" cx="166.95227278524752" cy="166.95227278524752" fill="#ffffff" stroke="transparent" stroke-width="0" fill-opacity="1" data-fill-palette-color="tertiary"></ellipse></g><g transform="matrix(1,0,0,1,84.55263221870399,71.17305217166896)"><svg viewBox="0 0 164.79928113308705 191.55844122715712" height="191.55844122715712" width="164.79928113308705"><g><svg viewBox="0 0 164.79928113308705 191.55844122715712" height="191.55844122715712" width="164.79928113308705"><g><svg viewBox="0 0 213.1584412271571 247.76988379524448" height="191.55844122715712" width="164.79928113308705"><g transform="matrix(1,0,0,1,0,149.10719908201506)"><svg viewBox="0 0 213.1584412271571 98.66268471322942" height="98.66268471322942" width="213.1584412271571"><g id="textblocktransform"><svg viewBox="0 0 213.1584412271571 98.66268471322942" height="98.66268471322942" width="213.1584412271571" id="textblock"><g><svg viewBox="0 0 213.1584412271571 54.03077317614657" height="54.03077317614657" width="213.1584412271571"><g transform="matrix(1,0,0,1,0,0)"><svg width="213.1584412271571" viewBox="2 -36.25 143.7899932861328 36.45000076293945" height="54.03077317614657" data-palette-color="#54b175"><path d="M23.65-13.2L19.35-13.2 19.35-15.95 28.4-15.95 28.4-13.2 26.45-13.2 26.45-1.05Q25.6-0.75 21.93-0.28 18.25 0.2 15.95 0.2 13.65 0.2 11.95-0.13 10.25-0.45 8.35-1.5 6.45-2.55 5.13-4.28 3.8-6 2.9-9 2-12 2-16L2-16Q2-24.85 6.05-29.8L6.05-29.8Q10.3-35 17.65-35L17.65-35Q19.9-35 22.53-34.58 25.15-34.15 26.25-33.75L26.25-33.75 26.85-26.55 24.4-26.2 23.7-31.6Q20.5-32.3 17.65-32.3L17.65-32.3Q12-32.3 8.7-28.1 5.4-23.9 5.4-16L5.4-16Q5.4-12.6 6.1-10.05 6.8-7.5 7.83-6.1 8.85-4.7 10.35-3.9L10.35-3.9Q12.75-2.55 16-2.55 19.25-2.55 23.5-3.2L23.5-3.2 23.65-13.2ZM34.85-11.2L34.85-11.2Q34.85-6.75 37.4-4.73 39.95-2.7 43.35-2.7L43.35-2.7Q45.55-2.7 47.87-3.13 50.2-3.55 50.95-3.9L50.95-3.9 51.6-1.55Q50.45-0.8 47.82-0.3 45.2 0.2 43.02 0.2 40.85 0.2 39.12-0.25 37.4-0.7 35.6-1.85 33.8-3 32.75-5.45 31.7-7.9 31.7-11.45L31.7-11.45Q31.7-18.05 35.1-21.55L35.1-21.55Q38.65-25.2 43.35-25.2 48.05-25.2 50.52-22.6 53-20 53-15.3L53-15.3Q53-14.3 52.85-13.15L52.85-13.15 35-13.15Q34.85-12.1 34.85-11.2ZM50-15.65L50-15.65Q50-18.75 48.15-20.43 46.3-22.1 43.85-22.1L43.85-22.1Q40.5-22.1 38.3-20.08 36.1-18.05 35.35-15.1L35.35-15.1 50-15.1Q50-15.4 50-15.65ZM59.6-22.5L56.25-22.5 56.25-25 62.85-25 62.85-22.2Q66.95-25 70.7-25.15L70.7-25.15Q74.34-25.15 76.25-23.7L76.25-23.7Q77.09-23.05 77.77-21.68 78.45-20.3 78.45-18.4L78.45-18.4 78.45-2.5 82.3-2.5 82.3 0 72.2 0 72.2-2.5 75.2-2.5 75.2-17.15Q75.2-22 69.5-22L69.5-22Q66.4-21.9 62.85-19.95L62.85-19.95 62.85-2.5 66.59-2.5 66.59 0 56.5 0 56.5-2.5 59.6-2.5 59.6-22.5ZM89.04-22.5L85.69-22.5 85.69-25 92.29-25 92.29-2.5 96.04-2.5 96.04 0 85.94 0 85.94-2.5 89.04-2.5 89.04-22.5ZM90.59-31.7Q89.59-31.7 89.04-32.33 88.49-32.95 88.49-33.98 88.49-35 89.07-35.63 89.64-36.25 90.64-36.25 91.64-36.25 92.27-35.63 92.89-35 92.89-33.93 92.89-32.85 92.24-32.27 91.59-31.7 90.59-31.7ZM118.44 0L117.94-2.9Q113.39 0.15 109.34 0.15L109.34 0.15Q107.64 0.15 105.34-0.7L105.34-0.7Q103.84-1.25 102.94-2.78 102.04-4.3 102.04-6.6L102.04-6.6 102.04-22.5 98.54-22.5 98.54-25 105.29-25 105.29-7.6Q105.29-5.85 106.04-4.73 106.79-3.6 107.94-3.25L107.94-3.25Q109.84-2.65 110.99-2.75L110.99-2.75Q113.99-2.8 117.94-4.9L117.94-4.9 117.94-22.5 114.44-22.5 114.44-25 121.19-25 121.19-2.5 125.04-2.5 125.04 0 118.44 0ZM131.14-8.05L131.39-3.25Q133.49-2.6 134.76-2.6 136.04-2.6 136.44-2.65L136.44-2.65Q139.04-2.7 140.79-3.75 142.54-4.8 142.54-6.7 142.54-8.6 141.16-9.65 139.79-10.7 137.84-11.25 135.89-11.8 133.94-12.45 131.99-13.1 130.61-14.5 129.24-15.9 129.24-18.15L129.24-18.15Q129.24-21.35 131.69-23.28 134.14-25.2 137.89-25.2L137.89-25.2Q140.69-25.2 143.54-24.2L143.54-24.2 144.44-23.85 144.44-18.1 141.99-17.75 141.79-22Q139.79-22.3 138.44-22.3L138.44-22.3Q135.69-22.3 134.09-21.23 132.49-20.15 132.49-18.48 132.49-16.8 133.86-15.85 135.24-14.9 137.19-14.35 139.14-13.8 141.09-13.13 143.04-12.45 144.41-10.93 145.79-9.4 145.79-6.95L145.79-6.95Q145.79-3.65 143.31-1.73 140.84 0.2 136.29 0.2 131.74 0.2 128.74-1.95L128.74-1.95 128.74-7.7 131.14-8.05Z" opacity="1" transform="matrix(1,0,0,1,0,0)" fill="#54b175" class="wordmark-text-0" data-fill-palette-color="quaternary" id="text-0"></path></svg></g></svg></g><g transform="matrix(1,0,0,1,0,66.78614198447855)"><svg viewBox="0 0 213.1584412271571 31.876542728750877" height="31.876542728750877" width="213.1584412271571"><g transform="matrix(1,0,0,1,0,0)"><svg width="213.1584412271571" viewBox="1.0499999523162842 -37.5 334.30999755859375 50" height="31.876542728750877" data-palette-color="#54b175"><path d="M23.1 0L17.75 0 13.3-25.7 9.25 0 6.25 0 11.75-35Q8.6-34.3 6.9-31.98 5.2-29.65 5.2-25.45L5.2-25.45Q5.2-23.75 5.43-22.68 5.65-21.6 5.95-20.95 6.25-20.3 6.58-20.03 6.9-19.75 7.05-19.65L7.05-19.65Q4.35-19.65 2.7-21.03 1.05-22.4 1.05-25.35L1.05-25.35Q1.05-27.8 2.25-30.03 3.45-32.25 5.3-33.9 7.15-35.55 9.38-36.52 11.6-37.5 13.7-37.5L13.7-37.5Q14.5-37.5 15.28-37.35 16.05-37.2 16.75-36.8L16.75-36.8 21.75-7.75 27.6-36.8 33.3-36.8 36.1 0 30.4 0 28.4-26.2 23.1 0ZM49.05-25.25L49.05-25.25Q51-25.25 52.4-24.65 53.8-24.05 54.7-22.98 55.6-21.9 56.12-20.45 56.65-19 56.9-17.35L56.9-17.35 57.2-17.35Q59.3-17.35 61.05-18.2 62.8-19.05 64.05-20.35L64.05-20.35 64.8-19Q63.8-17.4 61.62-16.35 59.45-15.3 57.15-14.9L57.15-14.9Q57.15-14.4 57.17-13.9 57.2-13.4 57.2-12.85L57.2-12.85Q57.2-6.7 54.95-3.2 52.7 0.3 48.65 0.3L48.65 0.3Q47 0.3 45.32-0.3 43.65-0.9 42.3-2.3 40.95-3.7 40.12-5.9 39.3-8.1 39.3-11.35L39.3-11.35Q39.3-13.55 39.77-16 40.25-18.45 41.37-20.5 42.5-22.55 44.37-23.9 46.25-25.25 49.05-25.25ZM49.55-3.5L49.55-3.5Q52.2-3.5 53.45-6.13 54.7-8.75 54.7-13.55L54.7-13.55Q54.7-13.85 54.7-14.15 54.7-14.45 54.65-14.75L54.65-14.75Q53.2-14.85 52.57-15.4 51.95-15.95 51.95-17.25L51.95-17.25Q51.95-18.4 52.45-18.88 52.95-19.35 53.95-19.4L53.95-19.4Q53.35-21.15 52.42-21.83 51.5-22.5 50.35-22.5L50.35-22.5Q48.8-22.5 47.72-21.48 46.65-20.45 45.97-18.85 45.3-17.25 45-15.33 44.7-13.4 44.7-11.55L44.7-11.55Q44.7-9.1 45.15-7.55 45.6-6 46.3-5.1 47-4.2 47.85-3.85 48.7-3.5 49.55-3.5ZM60.85-8.95L60.9-34.3 65.9-35 65.9-23.15Q66.75-24 67.9-24.55 69.05-25.1 70.65-25.1L70.65-25.1Q72-25.1 73.45-24.63 74.9-24.15 76.15-22.95 77.4-21.75 78.2-19.65 79-17.55 79-14.3L79-14.3Q79-11.45 78.32-8.8 77.65-6.15 76.27-4.13 74.9-2.1 72.85-0.9 70.8 0.3 68.05 0.3L68.05 0.3Q66.5 0.3 65.17-0.18 63.85-0.65 62.9-1.73 61.95-2.8 61.4-4.58 60.85-6.35 60.85-8.95L60.85-8.95ZM74.55-13.15L74.55-13.15Q74.55-15.1 74.2-16.8 73.85-18.5 73.17-19.78 72.5-21.05 71.52-21.78 70.55-22.5 69.3-22.5L69.3-22.5Q68.3-22.5 67.45-22.03 66.6-21.55 65.9-20.8L65.9-20.8 65.9-7.65Q65.9-3.15 68.85-3.15L68.85-3.15Q70.25-3.15 71.32-3.98 72.4-4.8 73.12-6.2 73.85-7.6 74.2-9.4 74.55-11.2 74.55-13.15ZM81.79-25L86.79-25 86.79-8Q86.79-7.5 86.84-6.75 86.89-6 87.12-5.28 87.34-4.55 87.79-4.03 88.24-3.5 89.04-3.5L89.04-3.5Q91.49-3.5 92.64-8.95L92.64-8.95 94.49-8.95Q93.94-5.8 93.09-3.98 92.24-2.15 91.29-1.2 90.34-0.25 89.34 0.03 88.34 0.3 87.54 0.3L87.54 0.3Q85.79 0.3 84.69-0.38 83.59-1.05 82.94-2.1 82.29-3.15 82.04-4.45 81.79-5.75 81.79-6.95L81.79-6.95 81.79-25ZM80.89-32.2L80.89-32.2Q80.89-33.55 81.84-34.55 82.79-35.55 84.19-35.55L84.19-35.55Q85.54-35.55 86.54-34.55 87.54-33.55 87.54-32.2L87.54-32.2Q87.54-30.8 86.54-29.85 85.54-28.9 84.19-28.9L84.19-28.9Q82.79-28.9 81.84-29.85 80.89-30.8 80.89-32.2ZM92.64-34.3L97.64-35 97.64-8Q97.64-7.5 97.69-6.75 97.74-6 97.97-5.28 98.19-4.55 98.64-4.03 99.09-3.5 99.89-3.5L99.89-3.5Q102.34-3.5 103.49-8.95L103.49-8.95 105.34-8.95Q104.79-5.8 103.94-3.98 103.09-2.15 102.14-1.2 101.19-0.25 100.19 0.03 99.19 0.3 98.39 0.3L98.39 0.3Q96.64 0.3 95.54-0.38 94.44-1.05 93.79-2.1 93.14-3.15 92.89-4.45 92.64-5.75 92.64-6.95L92.64-6.95 92.64-34.3ZM119.04-18.75L119.04-18.75Q119.04-15.25 116.16-12.9 113.29-10.55 108.19-10L108.19-10Q108.39-8 108.91-6.75 109.44-5.5 110.19-4.78 110.94-4.05 111.91-3.78 112.89-3.5 113.94-3.5L113.94-3.5Q116.34-3.5 118.44-4.75 120.54-6 121.84-8.95L121.84-8.95 123.44-8.95Q122.79-7.1 121.64-5.43 120.49-3.75 118.94-2.48 117.39-1.2 115.59-0.45 113.79 0.3 111.89 0.3L111.89 0.3Q110.14 0.3 108.51-0.3 106.89-0.9 105.64-2.27 104.39-3.65 103.61-5.85 102.84-8.05 102.84-11.25L102.84-11.25Q102.84-13.35 103.31-15.8 103.79-18.25 104.91-20.35 106.04-22.45 107.86-23.85 109.69-25.25 112.39-25.25L112.39-25.25Q113.64-25.25 114.81-24.98 115.99-24.7 116.94-23.98 117.89-23.25 118.46-22 119.04-20.75 119.04-18.75ZM108.14-11.95L108.14-11.95Q111.69-12.5 113.76-14.45 115.84-16.4 115.84-19.25L115.84-19.25Q115.84-21.15 115.19-21.98 114.54-22.8 113.34-22.8L113.34-22.8Q112.04-22.8 111.06-21.8 110.09-20.8 109.44-19.23 108.79-17.65 108.46-15.73 108.14-13.8 108.14-11.95ZM141.49-30.6L141.49-30.6Q141.49-28.6 140.66-27.5 139.84-26.4 138.49-26.4L138.49-26.4Q137.79-26.4 137.31-26.65 136.84-26.9 136.34-27.45L136.34-27.45Q137.04-27.95 137.41-28.9 137.79-29.85 137.79-30.9L137.79-30.9Q137.79-31.75 137.51-32.6 137.24-33.45 136.64-34.13 136.04-34.8 135.14-35.23 134.24-35.65 132.99-35.65L132.99-35.65Q131.69-35.65 130.66-35.18 129.64-34.7 128.96-33.88 128.29-33.05 127.94-31.95 127.59-30.85 127.59-29.6L127.59-29.6Q127.59-27.2 128.76-25.75 129.94-24.3 131.69-23.3 133.44-22.3 135.51-21.4 137.59-20.5 139.34-19.18 141.09-17.85 142.26-15.83 143.44-13.8 143.44-10.45L143.44-10.45Q143.44-7.45 142.44-5.33 141.44-3.2 139.81-1.9 138.19-0.6 136.09 0 133.99 0.6 131.79 0.6L131.79 0.6Q129.84 0.6 127.94 0.15 126.04-0.3 124.54-1.28 123.04-2.25 122.11-3.78 121.19-5.3 121.19-7.45L121.19-7.45Q121.19-8.7 121.54-10 121.89-11.3 122.56-12.35 123.24-13.4 124.26-14.08 125.29-14.75 126.64-14.75L126.64-14.75Q127.74-14.75 128.51-14.15 129.29-13.55 129.89-11.9L129.89-11.9Q128.69-11.85 127.91-11.4 127.14-10.95 126.69-10.3 126.24-9.65 126.06-8.9 125.89-8.15 125.89-7.5L125.89-7.5Q125.89-6.15 126.49-5.15 127.09-4.15 128.01-3.48 128.94-2.8 130.01-2.48 131.09-2.15 132.09-2.15L132.09-2.15Q134.39-2.15 135.89-3.9 137.39-5.65 137.39-8.95L137.39-8.95Q137.39-11.75 136.31-13.38 135.24-15 133.59-16.1 131.94-17.2 130.06-18 128.19-18.8 126.54-19.9 124.89-21 123.81-22.73 122.74-24.45 122.74-27.35L122.74-27.35Q122.74-29.85 123.59-31.75 124.44-33.65 125.81-34.93 127.19-36.2 129.01-36.83 130.84-37.45 132.79-37.45L132.79-37.45Q133.64-37.45 135.11-37.25 136.59-37.05 138.01-36.35 139.44-35.65 140.46-34.27 141.49-32.9 141.49-30.6ZM146.43-34.3L151.43-35 151.43-21.2Q152.18-22.55 152.96-23.38 153.73-24.2 154.53-24.6 155.33-25 156.06-25.13 156.78-25.25 157.43-25.25L157.43-25.25Q159.68-25.25 161.06-24.4 162.43-23.55 163.13-22.23 163.83-20.9 164.06-19.33 164.28-17.75 164.28-16.3L164.28-16.3Q164.28-15.4 164.23-14.33 164.18-13.25 164.13-12.13 164.08-11 164.03-9.88 163.98-8.75 163.98-7.8L163.98-7.8Q163.98-7.4 164.03-6.68 164.08-5.95 164.28-5.25 164.48-4.55 164.93-4.03 165.38-3.5 166.23-3.5L166.23-3.5Q167.38-3.5 168.31-4.8 169.23-6.1 169.83-8.95L169.83-8.95 171.68-8.95Q171.13-5.8 170.28-3.98 169.43-2.15 168.48-1.2 167.53-0.25 166.58 0.03 165.63 0.3 164.83 0.3L164.83 0.3Q163.23 0.3 162.13-0.33 161.03-0.95 160.33-2 159.63-3.05 159.31-4.45 158.98-5.85 158.98-7.35L158.98-7.35Q158.98-7.8 159.01-9.03 159.03-10.25 159.06-11.65 159.08-13.05 159.11-14.3 159.13-15.55 159.13-16.05L159.13-16.05Q159.13-17.65 158.88-18.7 158.63-19.75 158.18-20.35 157.73-20.95 157.16-21.2 156.58-21.45 155.93-21.45L155.93-21.45Q154.38-21.45 153.26-20.2 152.13-18.95 151.43-16L151.43-16 151.43 0 146.43 0 146.43-34.3ZM178.93-25.25L178.93-25.25Q180.88-25.25 182.28-24.65 183.68-24.05 184.58-22.98 185.48-21.9 186.01-20.45 186.53-19 186.78-17.35L186.78-17.35 187.08-17.35Q189.18-17.35 190.93-18.2 192.68-19.05 193.93-20.35L193.93-20.35 194.68-19Q193.68-17.4 191.51-16.35 189.33-15.3 187.03-14.9L187.03-14.9Q187.03-14.4 187.06-13.9 187.08-13.4 187.08-12.85L187.08-12.85Q187.08-6.7 184.83-3.2 182.58 0.3 178.53 0.3L178.53 0.3Q176.88 0.3 175.21-0.3 173.53-0.9 172.18-2.3 170.83-3.7 170.01-5.9 169.18-8.1 169.18-11.35L169.18-11.35Q169.18-13.55 169.66-16 170.13-18.45 171.26-20.5 172.38-22.55 174.26-23.9 176.13-25.25 178.93-25.25ZM179.43-3.5L179.43-3.5Q182.08-3.5 183.33-6.13 184.58-8.75 184.58-13.55L184.58-13.55Q184.58-13.85 184.58-14.15 184.58-14.45 184.53-14.75L184.53-14.75Q183.08-14.85 182.46-15.4 181.83-15.95 181.83-17.25L181.83-17.25Q181.83-18.4 182.33-18.88 182.83-19.35 183.83-19.4L183.83-19.4Q183.23-21.15 182.31-21.83 181.38-22.5 180.23-22.5L180.23-22.5Q178.68-22.5 177.61-21.48 176.53-20.45 175.86-18.85 175.18-17.25 174.88-15.33 174.58-13.4 174.58-11.55L174.58-11.55Q174.58-9.1 175.03-7.55 175.48-6 176.18-5.1 176.88-4.2 177.73-3.85 178.58-3.5 179.43-3.5ZM190.73-26.85L195.78-26.85 195.78-23Q196.73-24 198-24.63 199.28-25.25 200.98-25.25L200.98-25.25Q202.73-25.25 204.23-24.5 205.73-23.75 206.85-22.23 207.98-20.7 208.63-18.38 209.28-16.05 209.28-12.85L209.28-12.85Q209.28-6.6 206.93-3.15 204.58 0.3 200.68 0.3L200.68 0.3Q199.03 0.3 197.85-0.33 196.68-0.95 195.78-2.1L195.78-2.1 195.78 11.25 190.73 12.5 190.73-26.85ZM199.23-22L199.23-22Q198.13-22 197.25-21.38 196.38-20.75 195.78-19.6L195.78-19.6 195.78-4.6Q196.48-3.7 197.35-3.3 198.23-2.9 199.08-2.9L199.08-2.9Q200.33-2.9 201.28-3.7 202.23-4.5 202.9-5.88 203.58-7.25 203.93-9.1 204.28-10.95 204.28-13.05L204.28-13.05Q204.28-15.65 203.8-17.38 203.33-19.1 202.58-20.13 201.83-21.15 200.93-21.58 200.03-22 199.23-22ZM229.23-32.8L229.23-32.8Q227.98-32.05 227-30.18 226.03-28.3 225.38-25.85 224.73-23.4 224.4-20.63 224.08-17.85 224.08-15.3L224.08-15.3Q224.08-13.65 224.28-11.6 224.48-9.55 225.1-7.75 225.73-5.95 226.88-4.73 228.03-3.5 229.93-3.5L229.93-3.5Q231.98-3.5 233.38-4.93 234.78-6.35 235.65-8.68 236.53-11 236.93-13.95 237.33-16.9 237.33-19.95L237.33-19.95Q237.33-24.8 236.45-27.88 235.58-30.95 234.13-32.7 232.68-34.45 230.75-35.08 228.83-35.7 226.68-35.7L226.68-35.7Q224.18-35.7 222-35 219.83-34.3 218.2-32.9 216.58-31.5 215.65-29.4 214.73-27.3 214.73-24.5L214.73-24.5Q214.73-23.05 214.93-22.15 215.13-21.25 215.38-20.73 215.63-20.2 215.9-19.95 216.18-19.7 216.28-19.65L216.28-19.65Q213.58-19.65 212.03-21.03 210.48-22.4 210.48-25.2L210.48-25.2Q210.48-27.75 211.8-30 213.13-32.25 215.43-33.9 217.73-35.55 220.83-36.52 223.93-37.5 227.48-37.5L227.48-37.5Q232.08-37.5 235.13-35.9 238.18-34.3 240.03-31.68 241.88-29.05 242.63-25.68 243.38-22.3 243.38-18.7L243.38-18.7Q243.38-15.4 242.75-12.03 242.13-8.65 240.58-5.9 239.03-3.15 236.48-1.43 233.93 0.3 230.08 0.3L230.08 0.3Q227.58 0.3 225.38-0.55 223.18-1.4 221.53-3.35 219.88-5.3 218.9-8.45 217.93-11.6 217.93-16.2L217.93-16.2Q217.93-19.05 218.38-22.05 218.83-25.05 219.83-27.53 220.83-30 222.5-31.6 224.18-33.2 226.68-33.2L226.68-33.2Q227.23-33.2 227.88-33.13 228.53-33.05 229.23-32.8ZM246.97-25L251.97-25 251.97-21.2Q252.72-22.55 253.5-23.38 254.27-24.2 255.07-24.6 255.87-25 256.6-25.13 257.32-25.25 257.97-25.25L257.97-25.25Q260.22-25.25 261.6-24.4 262.97-23.55 263.67-22.23 264.37-20.9 264.6-19.33 264.82-17.75 264.82-16.3L264.82-16.3Q264.82-15.4 264.77-14.33 264.72-13.25 264.67-12.13 264.62-11 264.57-9.88 264.52-8.75 264.52-7.8L264.52-7.8Q264.52-7.4 264.57-6.68 264.62-5.95 264.82-5.25 265.02-4.55 265.47-4.03 265.92-3.5 266.77-3.5L266.77-3.5Q267.92-3.5 268.85-4.8 269.77-6.1 270.37-8.95L270.37-8.95 272.22-8.95Q271.67-5.8 270.82-3.98 269.97-2.15 269.02-1.2 268.07-0.25 267.12 0.03 266.17 0.3 265.37 0.3L265.37 0.3Q263.77 0.3 262.67-0.33 261.57-0.95 260.87-2 260.17-3.05 259.85-4.45 259.52-5.85 259.52-7.35L259.52-7.35Q259.52-7.8 259.55-9.03 259.57-10.25 259.6-11.65 259.62-13.05 259.65-14.3 259.67-15.55 259.67-16.05L259.67-16.05Q259.67-17.65 259.42-18.7 259.17-19.75 258.72-20.35 258.27-20.95 257.7-21.2 257.12-21.45 256.47-21.45L256.47-21.45Q254.92-21.45 253.8-20.2 252.67-18.95 251.97-16L251.97-16 251.97 0 246.97 0 246.97-25ZM270.37-34.3L275.37-35 275.37-8Q275.37-7.5 275.42-6.75 275.47-6 275.7-5.28 275.92-4.55 276.37-4.03 276.82-3.5 277.62-3.5L277.62-3.5Q280.07-3.5 281.22-8.95L281.22-8.95 283.07-8.95Q282.52-5.8 281.67-3.98 280.82-2.15 279.87-1.2 278.92-0.25 277.92 0.03 276.92 0.3 276.12 0.3L276.12 0.3Q274.37 0.3 273.27-0.38 272.17-1.05 271.52-2.1 270.87-3.15 270.62-4.45 270.37-5.75 270.37-6.95L270.37-6.95 270.37-34.3ZM281.17-25L286.17-25 286.17-8Q286.17-7.5 286.22-6.75 286.27-6 286.49-5.28 286.72-4.55 287.17-4.03 287.62-3.5 288.42-3.5L288.42-3.5Q290.87-3.5 292.02-8.95L292.02-8.95 293.87-8.95Q293.32-5.8 292.47-3.98 291.62-2.15 290.67-1.2 289.72-0.25 288.72 0.03 287.72 0.3 286.92 0.3L286.92 0.3Q285.17 0.3 284.07-0.38 282.97-1.05 282.32-2.1 281.67-3.15 281.42-4.45 281.17-5.75 281.17-6.95L281.17-6.95 281.17-25ZM280.27-32.2L280.27-32.2Q280.27-33.55 281.22-34.55 282.17-35.55 283.57-35.55L283.57-35.55Q284.92-35.55 285.92-34.55 286.92-33.55 286.92-32.2L286.92-32.2Q286.92-30.8 285.92-29.85 284.92-28.9 283.57-28.9L283.57-28.9Q282.17-28.9 281.22-29.85 280.27-30.8 280.27-32.2ZM291.97-25L296.97-25 296.97-21.2Q297.72-22.55 298.49-23.38 299.27-24.2 300.07-24.6 300.87-25 301.59-25.13 302.32-25.25 302.97-25.25L302.97-25.25Q305.22-25.25 306.59-24.4 307.97-23.55 308.67-22.23 309.37-20.9 309.59-19.33 309.82-17.75 309.82-16.3L309.82-16.3Q309.82-15.4 309.77-14.33 309.72-13.25 309.67-12.13 309.62-11 309.57-9.88 309.52-8.75 309.52-7.8L309.52-7.8Q309.52-7.4 309.57-6.68 309.62-5.95 309.82-5.25 310.02-4.55 310.47-4.03 310.92-3.5 311.77-3.5L311.77-3.5Q312.92-3.5 313.84-4.8 314.77-6.1 315.37-8.95L315.37-8.95 317.22-8.95Q316.67-5.8 315.82-3.98 314.97-2.15 314.02-1.2 313.07-0.25 312.12 0.03 311.17 0.3 310.37 0.3L310.37 0.3Q308.77 0.3 307.67-0.33 306.57-0.95 305.87-2 305.17-3.05 304.84-4.45 304.52-5.85 304.52-7.35L304.52-7.35Q304.52-7.8 304.54-9.03 304.57-10.25 304.59-11.65 304.62-13.05 304.64-14.3 304.67-15.55 304.67-16.05L304.67-16.05Q304.67-17.65 304.42-18.7 304.17-19.75 303.72-20.35 303.27-20.95 302.69-21.2 302.12-21.45 301.47-21.45L301.47-21.45Q299.92-21.45 298.79-20.2 297.67-18.95 296.97-16L296.97-16 296.97 0 291.97 0 291.97-25ZM330.96-18.75L330.96-18.75Q330.96-15.25 328.09-12.9 325.21-10.55 320.11-10L320.11-10Q320.31-8 320.84-6.75 321.36-5.5 322.11-4.78 322.86-4.05 323.84-3.78 324.81-3.5 325.86-3.5L325.86-3.5Q328.26-3.5 330.36-4.75 332.46-6 333.76-8.95L333.76-8.95 335.36-8.95Q334.71-7.1 333.56-5.43 332.41-3.75 330.86-2.48 329.31-1.2 327.51-0.45 325.71 0.3 323.81 0.3L323.81 0.3Q322.06 0.3 320.44-0.3 318.81-0.9 317.56-2.27 316.31-3.65 315.54-5.85 314.76-8.05 314.76-11.25L314.76-11.25Q314.76-13.35 315.24-15.8 315.71-18.25 316.84-20.35 317.96-22.45 319.79-23.85 321.61-25.25 324.31-25.25L324.31-25.25Q325.56-25.25 326.74-24.98 327.91-24.7 328.86-23.98 329.81-23.25 330.39-22 330.96-20.75 330.96-18.75ZM320.06-11.95L320.06-11.95Q323.61-12.5 325.69-14.45 327.76-16.4 327.76-19.25L327.76-19.25Q327.76-21.15 327.11-21.98 326.46-22.8 325.26-22.8L325.26-22.8Q323.96-22.8 322.99-21.8 322.01-20.8 321.36-19.23 320.71-17.65 320.39-15.73 320.06-13.8 320.06-11.95Z" opacity="1" transform="matrix(1,0,0,1,0,0)" fill="#54b175" class="slogan-text-1" data-fill-palette-color="quaternary" id="text-1"></path></svg></g></svg></g></svg></g></svg></g><g transform="matrix(1,0,0,1,57.947070127702496,0)"><svg viewBox="0 0 97.26430097175212 136.35183027368308" height="136.35183027368308" width="97.26430097175212"><g><svg xmlns="http://www.w3.org/2000/svg" xmlns:xlink="http://www.w3.org/1999/xlink" version="1.1" x="0" y="0" viewBox="17.899999618530273 5 64.19999694824219 90" enable-background="new 0 0 100 100" xml:space="preserve" height="136.35183027368308" width="97.26430097175212" class="icon-icon-0" data-fill-palette-color="quaternary" id="icon-0"><path d="M82 83.4l-17.6-72c-0.1-0.3-0.2-0.7-0.4-1-0.2-0.3-0.4-0.6-0.7-0.8C63 9.3 62.7 9.1 62.3 9c-0.3-0.2-0.7-0.3-1-0.3L22.6 5c-0.4 0-0.8 0-1.2 0.1-0.4 0.1-0.7 0.3-0.9 0.5-0.2 0.2-0.4 0.4-0.5 0.7 0 0 0 0 0-0.1L20 6.4c2.8 19.1 11.9 81.4 12.1 82.9 0.2 1.4 1.2 2.9 3.1 2.9 1.4 0 27.5-3.6 46.6-6.3 0 0 0 0 0-0.1 0.2-0.3 0.3-0.7 0.3-1.1C82.1 84.3 82.1 83.8 82 83.4zM62.1 82.8c-0.1 0.6-0.3 1.2-0.6 1.7-0.3 0.5-0.7 1-1.2 1.3-0.5 0.3-1.1 0.6-1.7 0.6-0.6 0.1-1.3 0-1.9-0.2-0.6-0.2-1.2-0.5-1.7-0.9-0.5-0.4-1-0.9-1.3-1.5-0.4-0.6-0.6-1.3-0.7-2-0.1-0.7-0.1-1.4 0-2.1 0.1-0.6 0.3-1.2 0.7-1.7 0.3-0.5 0.7-0.9 1.2-1.2 0.5-0.3 1.1-0.5 1.7-0.6 0.6-0.1 1.2 0 1.8 0.2 0.6 0.2 1.1 0.5 1.6 0.9 0.5 0.4 0.9 0.9 1.3 1.5 0.3 0.6 0.6 1.2 0.7 1.9C62.2 81.5 62.2 82.2 62.1 82.8zM33.9 73.7L24 8.8 61.5 12l13.8 58L33.9 73.7zM35.2 93c-2.4 0-3.7-1.9-3.9-3.6C31.1 88 22.4 28.1 19.4 7.8l-1.3 2.9c0 0.1-0.1 0.2-0.1 0.3 0 0.1 0 0.2-0.1 0.3 0 0.1 0 0.2 0 0.3 0 0.1 0 0.2 0 0.3l11 79.8c0.1 0.5 0.2 1 0.5 1.4 0.2 0.4 0.6 0.8 0.9 1.1 0.4 0.3 0.8 0.5 1.2 0.6C32 95 32.4 95 32.9 95l42.7-6.4c0 0 0.1 0 0.1 0 0 0 0.1 0 0.1 0 0 0 0.1 0 0.1 0 0 0 0.1 0 0.1 0l4.5-1.5c0 0-0.1 0-0.1 0 0.2 0 0.3-0.1 0.4-0.2C65.2 89.1 36.7 93 35.2 93zM80.3 87.1C80.3 87.1 80.3 87.1 80.3 87.1c-0.1 0-0.1 0-0.2 0 0 0-0.1 0-0.1 0C80.2 87.1 80.3 87.1 80.3 87.1 80.3 87.1 80.3 87.1 80.3 87.1z" fill="#54b175" data-fill-palette-color="quaternary"></path></svg></g></svg></g><g></g></svg></g></svg></g></svg></g></svg></g><defs></defs></svg><rect width="333.90454557049503" height="333.90454557049503" fill="none" stroke="none" visibility="hidden"></rect></g></svg></g></svg>